<svg xmlns="http://www.w3.org/2000/svg" xmlns:xlink="http://www.w3.org/1999/xlink" width="610" zoomAndPan="magnify" viewBox="0 0 457.5 452.25" height="603" preserveAspectRatio="xMidYMid meet" version="1.0"><defs><clipPath id="af3b4306a8"><path d="M 194.253906 242 L 210 242 L 210 264.421875 L 194.253906 264.421875 Z M 194.253906 242 " clip-rule="nonzero"/></clipPath><clipPath id="8252f7fd90"><path d="M 204 84.21875 L 417.394531 125.296875 L 371.1875 365.359375 L 157.785156 324.292969 Z M 204 84.21875 " clip-rule="nonzero"/></clipPath><clipPath id="1e6c261036"><path d="M 417.027344 125.222656 L 203.632812 84.15625 L 157.425781 324.21875 L 370.820312 365.296875 Z M 417.027344 125.222656 " clip-rule="nonzero"/></clipPath><clipPath id="b3827f0061"><path d="M 252 224 L 267 224 L 267 247 L 252 247 Z M 252 224 " clip-rule="nonzero"/></clipPath><clipPath id="d7fe09c77b"><path d="M 204 84.21875 L 417.394531 125.296875 L 371.1875 365.359375 L 157.785156 324.292969 Z M 204 84.21875 " clip-rule="nonzero"/></clipPath><clipPath id="949aea1828"><path d="M 417.027344 125.222656 L 203.632812 84.15625 L 157.425781 324.21875 L 370.820312 365.296875 Z M 417.027344 125.222656 " clip-rule="nonzero"/></clipPath><clipPath id="b05d3fd5f1"><path d="M 223 233 L 239 233 L 239 256 L 223 256 Z M 223 233 " clip-rule="nonzero"/></clipPath><clipPath id="488cf7778d"><path d="M 204 84.21875 L 417.394531 125.296875 L 371.1875 365.359375 L 157.785156 324.292969 Z M 204 84.21875 " clip-rule="nonzero"/></clipPath><clipPath id="5aface11e0"><path d="M 417.027344 125.222656 L 203.632812 84.15625 L 157.425781 324.21875 L 370.820312 365.296875 Z M 417.027344 125.222656 " clip-rule="nonzero"/></clipPath><clipPath id="013a5f8148"><path d="M 290 293 L 309 293 L 309 313 L 290 313 Z M 290 293 " clip-rule="nonzero"/></clipPath><clipPath id="7fac350748"><path d="M 204 84.21875 L 417.394531 125.296875 L 371.1875 365.359375 L 157.785156 324.292969 Z M 204 84.21875 " clip-rule="nonzero"/></clipPath><clipPath id="18b85ebb0b"><path d="M 417.027344 125.222656 L 203.632812 84.15625 L 157.425781 324.21875 L 370.820312 365.296875 Z M 417.027344 125.222656 " clip-rule="nonzero"/></clipPath><clipPath id="f9212ea40c"><path d="M 359 215 L 377.898438 215 L 377.898438 234.714844 L 359 234.714844 Z M 359 215 " clip-rule="nonzero"/></clipPath><clipPath id="824b42d6e7"><path d="M 204 84.21875 L 417.394531 125.296875 L 371.1875 365.359375 L 157.785156 324.292969 Z M 204 84.21875 " clip-rule="nonzero"/></clipPath><clipPath id="684d7c3b51"><path d="M 417.027344 125.222656 L 203.632812 84.15625 L 157.425781 324.21875 L 370.820312 365.296875 Z M 417.027344 125.222656 " clip-rule="nonzero"/></clipPath><clipPath id="da91fac45a"><path d="M 236 150 L 260 150 L 260 164.5 L 236 164.5 Z M 236 150 " clip-rule="nonzero"/></clipPath><clipPath id="03c2c574b5"><path d="M 204 84.21875 L 417.394531 125.296875 L 371.1875 365.359375 L 157.785156 324.292969 Z M 204 84.21875 " clip-rule="nonzero"/></clipPath><clipPath id="32ca854350"><path d="M 417.027344 125.222656 L 203.632812 84.15625 L 157.425781 324.21875 L 370.820312 365.296875 Z M 417.027344 125.222656 " clip-rule="nonzero"/></clipPath><clipPath id="f63f6dbecc"><path d="M 281 189 L 304 189 L 304 204 L 281 204 Z M 281 189 " clip-rule="nonzero"/></clipPath><clipPath id="2662f21d0a"><path d="M 204 84.21875 L 417.394531 125.296875 L 371.1875 365.359375 L 157.785156 324.292969 Z M 204 84.21875 " clip-rule="nonzero"/></clipPath><clipPath id="5ecd6fcf28"><path d="M 417.027344 125.222656 L 203.632812 84.15625 L 157.425781 324.21875 L 370.820312 365.296875 Z M 417.027344 125.222656 " clip-rule="nonzero"/></clipPath><clipPath id="ea2ca07714"><path d="M 294.179688 130 L 318 130 L 318 145 L 294.179688 145 Z M 294.179688 130 " clip-rule="nonzero"/></clipPath><clipPath id="5b20783a70"><path d="M 204 84.21875 L 417.394531 125.296875 L 371.1875 365.359375 L 157.785156 324.292969 Z M 204 84.21875 " clip-rule="nonzero"/></clipPath><clipPath id="95413ce601"><path d="M 417.027344 125.222656 L 203.632812 84.15625 L 157.425781 324.21875 L 370.820312 365.296875 Z M 417.027344 125.222656 " clip-rule="nonzero"/></clipPath><clipPath id="30a87d59f1"><path d="M 339 169 L 362 169 L 362 183 L 339 183 Z M 339 169 " clip-rule="nonzero"/></clipPath><clipPath id="92796b5c85"><path d="M 204 84.21875 L 417.394531 125.296875 L 371.1875 365.359375 L 157.785156 324.292969 Z M 204 84.21875 " clip-rule="nonzero"/></clipPath><clipPath id="aeba27200e"><path d="M 417.027344 125.222656 L 203.632812 84.15625 L 157.425781 324.21875 L 370.820312 365.296875 Z M 417.027344 125.222656 " clip-rule="nonzero"/></clipPath><clipPath id="97dc8b0a96"><path d="M 288 160 L 311 160 L 311 174 L 288 174 Z M 288 160 " clip-rule="nonzero"/></clipPath><clipPath id="07beb7c072"><path d="M 204 84.21875 L 417.394531 125.296875 L 371.1875 365.359375 L 157.785156 324.292969 Z M 204 84.21875 " clip-rule="nonzero"/></clipPath><clipPath id="2852749c52"><path d="M 417.027344 125.222656 L 203.632812 84.15625 L 157.425781 324.21875 L 370.820312 365.296875 Z M 417.027344 125.222656 " clip-rule="nonzero"/></clipPath><clipPath id="1c44caa47b"><path d="M 169 105.085938 L 404.90625 105.085938 L 404.90625 346 L 169 346 Z M 169 105.085938 " clip-rule="nonzero"/></clipPath><clipPath id="03e2c34c3e"><path d="M 204 84.21875 L 417.394531 125.296875 L 371.1875 365.359375 L 157.785156 324.292969 Z M 204 84.21875 " clip-rule="nonzero"/></clipPath><clipPath id="dd422ea243"><path d="M 417.027344 125.222656 L 203.632812 84.15625 L 157.425781 324.21875 L 370.820312 365.296875 Z M 417.027344 125.222656 " clip-rule="nonzero"/></clipPath><clipPath id="366f0d1987"><path d="M 0.128906 212 L 117 212 L 117 215 L 0.128906 215 Z M 0.128906 212 " clip-rule="nonzero"/></clipPath><clipPath id="ea532da326"><path d="M 71 189.777344 L 207.757812 189.777344 L 207.757812 195 L 71 195 Z M 71 189.777344 " clip-rule="nonzero"/></clipPath><clipPath id="80537965e7"><path d="M 80.828125 288 L 216.25 288 L 216.25 291.640625 L 80.828125 291.640625 Z M 80.828125 288 " clip-rule="nonzero"/></clipPath></defs><g clip-path="url(#af3b4306a8)"><g clip-path="url(#8252f7fd90)"><g clip-path="url(#1e6c261036)"><path fill="#d91141" d="M 200.296875 262.164062 C 196.449219 258.820312 194.09375 252.050781 195.066406 247.039062 C 196.027344 242.027344 199.941406 240.675781 203.789062 244.011719 C 207.652344 247.355469 210.003906 254.128906 209.035156 259.136719 C 208.074219 264.160156 204.160156 265.511719 200.296875 262.164062 " fill-opacity="1" fill-rule="nonzero"/></g></g></g><g clip-path="url(#b3827f0061)"><g clip-path="url(#d7fe09c77b)"><g clip-path="url(#949aea1828)"><path fill="#d91141" d="M 261.464844 226.402344 C 265.324219 229.746094 267.667969 236.519531 266.707031 241.53125 C 265.738281 246.542969 261.824219 247.890625 257.972656 244.558594 C 254.109375 241.214844 251.769531 234.441406 252.730469 229.429688 C 253.6875 224.421875 257.601562 223.058594 261.464844 226.402344 " fill-opacity="1" fill-rule="nonzero"/></g></g></g><g clip-path="url(#b05d3fd5f1)"><g clip-path="url(#488cf7778d)"><g clip-path="url(#5aface11e0)"><path fill="#d91141" d="M 232.632812 235.210938 C 236.484375 238.554688 238.835938 245.328125 237.863281 250.339844 C 236.90625 255.351562 232.992188 256.703125 229.128906 253.355469 C 225.28125 250.023438 222.925781 243.25 223.898438 238.238281 C 224.859375 233.21875 228.773438 231.867188 232.632812 235.210938 " fill-opacity="1" fill-rule="nonzero"/></g></g></g><g clip-path="url(#013a5f8148)"><g clip-path="url(#7fac350748)"><g clip-path="url(#18b85ebb0b)"><path fill="#d91141" d="M 297.722656 312.253906 C 292.902344 313.921875 289.769531 311.21875 290.738281 306.199219 C 291.699219 301.1875 296.394531 295.777344 301.214844 294.097656 C 306.035156 292.433594 309.167969 295.144531 308.199219 300.152344 C 307.238281 305.164062 302.542969 310.585938 297.722656 312.253906 " fill-opacity="1" fill-rule="nonzero"/></g></g></g><g clip-path="url(#f9212ea40c)"><g clip-path="url(#824b42d6e7)"><g clip-path="url(#684d7c3b51)"><path fill="#d91141" d="M 367.023438 234.210938 C 362.199219 235.875 359.066406 233.175781 360.039062 228.15625 C 360.996094 223.144531 365.691406 217.722656 370.511719 216.054688 C 375.335938 214.386719 378.46875 217.097656 377.496094 222.109375 C 376.539062 227.121094 371.84375 232.542969 367.023438 234.210938 " fill-opacity="1" fill-rule="nonzero"/></g></g></g><g clip-path="url(#da91fac45a)"><g clip-path="url(#03c2c574b5)"><g clip-path="url(#32ca854350)"><path fill="#d91141" d="M 240.957031 151.648438 C 245.777344 149.984375 252.8125 151.332031 256.675781 154.679688 C 260.523438 158.023438 259.746094 162.082031 254.921875 163.75 C 250.101562 165.425781 243.066406 164.066406 239.203125 160.722656 C 235.34375 157.390625 236.125 153.328125 240.957031 151.648438 " fill-opacity="1" fill-rule="nonzero"/></g></g></g><g clip-path="url(#f63f6dbecc)"><g clip-path="url(#2662f21d0a)"><g clip-path="url(#5ecd6fcf28)"><path fill="#d91141" d="M 285.527344 190.25 C 290.347656 188.582031 297.386719 189.933594 301.246094 193.277344 C 305.105469 196.621094 304.316406 200.683594 299.496094 202.351562 C 294.671875 204.027344 287.636719 202.675781 283.777344 199.332031 C 279.914062 195.988281 280.695312 191.929688 285.527344 190.25 " fill-opacity="1" fill-rule="nonzero"/></g></g></g><g clip-path="url(#ea2ca07714)"><g clip-path="url(#5b20783a70)"><g clip-path="url(#95413ce601)"><path fill="#d91141" d="M 313.082031 143.613281 C 308.25 145.277344 301.214844 143.929688 297.351562 140.582031 C 293.503906 137.238281 294.285156 133.179688 299.105469 131.511719 C 303.925781 129.835938 310.972656 131.195312 314.824219 134.527344 C 318.683594 137.871094 317.902344 141.933594 313.082031 143.613281 " fill-opacity="1" fill-rule="nonzero"/></g></g></g><g clip-path="url(#30a87d59f1)"><g clip-path="url(#92796b5c85)"><g clip-path="url(#aeba27200e)"><path fill="#d91141" d="M 343.675781 170.113281 C 348.496094 168.433594 355.535156 169.796875 359.394531 173.140625 C 363.253906 176.472656 362.476562 180.546875 357.652344 182.210938 C 352.820312 183.878906 345.785156 182.527344 341.933594 179.183594 C 338.074219 175.839844 338.855469 171.777344 343.675781 170.113281 " fill-opacity="1" fill-rule="nonzero"/></g></g></g><g clip-path="url(#97dc8b0a96)"><g clip-path="url(#07beb7c072)"><g clip-path="url(#2852749c52)"><path fill="#d91141" d="M 306.289062 172.980469 C 301.46875 174.660156 294.421875 173.296875 290.570312 169.953125 C 286.710938 166.621094 287.488281 162.546875 292.3125 160.882812 C 297.140625 159.214844 304.179688 160.5625 308.039062 163.910156 C 311.890625 167.253906 311.109375 171.3125 306.289062 172.980469 " fill-opacity="1" fill-rule="nonzero"/></g></g></g><g clip-path="url(#1c44caa47b)"><g clip-path="url(#03e2c34c3e)"><g clip-path="url(#dd422ea243)"><path fill="#d91141" d="M 198.800781 152.558594 L 200.4375 154.996094 L 198.863281 152.261719 Z M 177.996094 260.667969 L 263.34375 334.261719 L 284.03125 226.792969 L 223.824219 175.132812 L 198.535156 153.960938 Z M 288.945312 220.75 L 392.53125 184.871094 L 309.664062 113.113281 L 206.078125 148.980469 Z M 292.765625 227.933594 L 294.285156 227.40625 L 292.773438 227.921875 Z M 287.964844 250.328125 L 271.507812 335.832031 L 375.417969 300.015625 L 396.148438 192.359375 L 292.214844 228.195312 Z M 196.742188 143.328125 L 198.230469 142.882812 L 198.324219 143.050781 L 198.738281 142.925781 L 305.582031 105.90625 C 309.199219 104.652344 313.21875 105.433594 316.109375 107.933594 L 320.339844 111.59375 L 352.683594 139.601562 L 401.941406 182.359375 C 403.964844 184.132812 405.15625 186.90625 404.652344 189.554688 L 382.824219 302.949219 C 382.445312 304.902344 380.808594 306.453125 378.941406 307.105469 L 289.125 338.34375 L 269.261719 345.230469 C 266.8125 346.085938 264.070312 345.589844 262.085938 343.921875 L 249.945312 333.773438 L 171.898438 267.25 C 170.378906 265.953125 169.421875 263.886719 169.800781 261.914062 L 191.53125 149.003906 C 192.039062 146.34375 194.179688 144.203125 196.742188 143.328125 " fill-opacity="1" fill-rule="nonzero"/></g></g></g><path fill="#d43c59" d="M 196.808594 265.289062 L 44.316406 263.042969 L 196.808594 260.792969 C 198.050781 260.773438 199.074219 261.765625 199.085938 263.007812 C 199.105469 264.242188 198.113281 265.265625 196.871094 265.289062 C 196.859375 265.289062 196.828125 265.289062 196.808594 265.289062 Z M 196.808594 265.289062 " fill-opacity="1" fill-rule="nonzero"/><path fill="#d43c59" d="M 191.207031 253.070312 L 70.644531 251.945312 L 191.207031 250.816406 C 191.828125 250.816406 192.332031 251.308594 192.332031 251.933594 C 192.34375 252.554688 191.847656 253.0625 191.226562 253.070312 C 191.214844 253.070312 191.207031 253.070312 191.207031 253.070312 Z M 191.207031 253.070312 " fill-opacity="1" fill-rule="nonzero"/><path fill="#d43c59" d="M 156.011719 279.457031 L 35.453125 278.339844 L 156.011719 277.210938 C 156.632812 277.210938 157.140625 277.707031 157.140625 278.328125 C 157.152344 278.949219 156.65625 279.457031 156.035156 279.457031 C 156.023438 279.457031 156.011719 279.457031 156.011719 279.457031 Z M 156.011719 279.457031 " fill-opacity="1" fill-rule="nonzero"/><path fill="#d43c59" d="M 183.789062 247.300781 L 55.421875 245.371094 L 183.789062 243.441406 C 184.855469 243.429688 185.730469 244.285156 185.742188 245.339844 C 185.761719 246.40625 184.90625 247.28125 183.839844 247.300781 C 183.832031 247.300781 183.800781 247.300781 183.789062 247.300781 Z M 183.789062 247.300781 " fill-opacity="1" fill-rule="nonzero"/><path fill="#d43c59" d="M 199.949219 238.25 L 18.121094 236.320312 L 199.949219 234.390625 C 201.003906 234.378906 201.882812 235.234375 201.890625 236.296875 C 201.902344 237.363281 201.046875 238.238281 199.980469 238.25 C 199.972656 238.25 199.960938 238.25 199.949219 238.25 Z M 199.949219 238.25 " fill-opacity="1" fill-rule="nonzero"/><path fill="#d43c59" d="M 213.484375 273.589844 L 31.65625 271.660156 L 213.484375 269.730469 C 214.550781 269.71875 215.417969 270.574219 215.425781 271.640625 C 215.449219 272.703125 214.59375 273.582031 213.527344 273.589844 C 213.515625 273.589844 213.496094 273.589844 213.484375 273.589844 Z M 213.484375 273.589844 " fill-opacity="1" fill-rule="nonzero"/><path fill="#d43c59" d="M 187.933594 229.695312 L 35.441406 228.566406 L 187.933594 227.449219 C 188.558594 227.4375 189.0625 227.945312 189.074219 228.566406 C 189.074219 229.179688 188.578125 229.695312 187.957031 229.695312 C 187.957031 229.695312 187.945312 229.695312 187.933594 229.695312 Z M 187.933594 229.695312 " fill-opacity="1" fill-rule="nonzero"/><path fill="#d43c59" d="M 192.039062 221.878906 L 58.230469 219.957031 L 192.039062 218.027344 C 193.105469 218.015625 193.980469 218.859375 193.988281 219.925781 C 194.011719 220.992188 193.15625 221.867188 192.089844 221.886719 C 192.082031 221.878906 192.050781 221.878906 192.039062 221.878906 Z M 192.039062 221.878906 " fill-opacity="1" fill-rule="nonzero"/><path fill="#d43c59" d="M 184.03125 210.726562 L 50.234375 209.597656 L 184.03125 208.46875 C 184.652344 208.46875 185.160156 208.964844 185.171875 209.585938 C 185.171875 210.210938 184.675781 210.714844 184.050781 210.726562 C 184.050781 210.726562 184.03125 210.726562 184.03125 210.726562 Z M 184.03125 210.726562 " fill-opacity="1" fill-rule="nonzero"/><path fill="#d43c59" d="M 195.507812 205.566406 L 109.226562 204.925781 L 195.507812 204.292969 C 195.867188 204.28125 196.164062 204.566406 196.164062 204.925781 C 196.164062 205.285156 195.878906 205.566406 195.519531 205.578125 C 195.519531 205.566406 195.519531 205.566406 195.507812 205.566406 Z M 195.507812 205.566406 " fill-opacity="1" fill-rule="nonzero"/><g clip-path="url(#366f0d1987)"><path fill="#d43c59" d="M 115.789062 214.039062 L -18.019531 213.394531 L 115.789062 212.753906 C 116.136719 212.753906 116.429688 213.039062 116.429688 213.394531 C 116.429688 213.753906 116.144531 214.039062 115.789062 214.039062 Z M 115.789062 214.039062 " fill-opacity="1" fill-rule="nonzero"/></g><path fill="#d43c59" d="M 70.65625 259.378906 L 25.390625 258.738281 L 70.65625 258.09375 C 71.015625 258.082031 71.300781 258.367188 71.3125 258.726562 C 71.3125 259.085938 71.027344 259.371094 70.679688 259.378906 C 70.667969 259.378906 70.65625 259.378906 70.65625 259.378906 Z M 70.65625 259.378906 " fill-opacity="1" fill-rule="nonzero"/><path fill="#d43c59" d="M 175 283.875 L 129.734375 283.242188 L 175 282.601562 C 175.359375 282.589844 175.644531 282.875 175.65625 283.234375 C 175.65625 283.589844 175.371094 283.875 175.023438 283.886719 C 175.011719 283.875 175.011719 283.875 175 283.875 Z M 175 283.875 " fill-opacity="1" fill-rule="nonzero"/><path fill="#d43c59" d="M 139.765625 225.496094 L 94.5 224.863281 L 139.765625 224.21875 C 140.113281 224.210938 140.410156 224.492188 140.410156 224.851562 C 140.421875 225.210938 140.136719 225.496094 139.777344 225.507812 C 139.777344 225.496094 139.765625 225.496094 139.765625 225.496094 Z M 139.765625 225.496094 " fill-opacity="1" fill-rule="nonzero"/><path fill="#d43c59" d="M 107.539062 241.488281 L 62.269531 240.84375 L 107.539062 240.203125 C 107.886719 240.203125 108.179688 240.488281 108.191406 240.835938 C 108.191406 241.195312 107.90625 241.488281 107.546875 241.488281 C 107.546875 241.488281 107.539062 241.488281 107.539062 241.488281 Z M 107.539062 241.488281 " fill-opacity="1" fill-rule="nonzero"/><path fill="#d43c59" d="M 165.210938 202.507812 L 31.402344 200.261719 L 165.210938 198.003906 C 166.457031 197.984375 167.480469 198.976562 167.5 200.21875 C 167.523438 201.464844 166.53125 202.488281 165.285156 202.507812 C 165.265625 202.507812 165.234375 202.507812 165.210938 202.507812 Z M 165.210938 202.507812 " fill-opacity="1" fill-rule="nonzero"/><g clip-path="url(#ea532da326)"><path fill="#d43c59" d="M 205.234375 194.289062 L 71.425781 192.042969 L 205.234375 189.796875 C 206.46875 189.777344 207.503906 190.765625 207.515625 192 C 207.535156 193.246094 206.554688 194.269531 205.308594 194.289062 C 205.289062 194.289062 205.257812 194.289062 205.234375 194.289062 Z M 205.234375 194.289062 " fill-opacity="1" fill-rule="nonzero"/></g><g clip-path="url(#80537965e7)"><path fill="#d43c59" d="M 214.71875 293.128906 L 80.910156 290.871094 L 214.71875 288.625 C 215.953125 288.601562 216.988281 289.59375 217 290.839844 C 217.019531 292.082031 216.039062 293.105469 214.792969 293.128906 C 214.773438 293.128906 214.742188 293.128906 214.71875 293.128906 Z M 214.71875 293.128906 " fill-opacity="1" fill-rule="nonzero"/></g></svg>