<svg xmlns="http://www.w3.org/2000/svg" xmlns:xlink="http://www.w3.org/1999/xlink" width="234" zoomAndPan="magnify" viewBox="0 0 175.5 175.499993" height="234" preserveAspectRatio="xMidYMid meet" version="1.0"><defs><clipPath id="b84f66dd3d"><path d="M 75 93 L 81 93 L 81 102 L 75 102 Z M 75 93 " clip-rule="nonzero"/></clipPath><clipPath id="24b758ec93"><path d="M 78.609375 35.273438 L 157.625 50.484375 L 140.515625 139.375 L 61.496094 124.167969 Z M 78.609375 35.273438 " clip-rule="nonzero"/></clipPath><clipPath id="a3591945d7"><path d="M 157.488281 50.457031 L 78.472656 35.25 L 61.363281 124.140625 L 140.378906 139.351562 Z M 157.488281 50.457031 " clip-rule="nonzero"/></clipPath><clipPath id="4d4ac745a3"><path d="M 96 87 L 102 87 L 102 96 L 96 96 Z M 96 87 " clip-rule="nonzero"/></clipPath><clipPath id="ebf90ad2cc"><path d="M 78.609375 35.273438 L 157.625 50.484375 L 140.515625 139.375 L 61.496094 124.167969 Z M 78.609375 35.273438 " clip-rule="nonzero"/></clipPath><clipPath id="126951ae02"><path d="M 157.488281 50.457031 L 78.472656 35.25 L 61.363281 124.140625 L 140.378906 139.351562 Z M 157.488281 50.457031 " clip-rule="nonzero"/></clipPath><clipPath id="e984c2d0f4"><path d="M 85 90 L 92 90 L 92 99 L 85 99 Z M 85 90 " clip-rule="nonzero"/></clipPath><clipPath id="e772028d0e"><path d="M 78.609375 35.273438 L 157.625 50.484375 L 140.515625 139.375 L 61.496094 124.167969 Z M 78.609375 35.273438 " clip-rule="nonzero"/></clipPath><clipPath id="1c4da6f44d"><path d="M 157.488281 50.457031 L 78.472656 35.25 L 61.363281 124.140625 L 140.378906 139.351562 Z M 157.488281 50.457031 " clip-rule="nonzero"/></clipPath><clipPath id="54f31a20b2"><path d="M 110 112 L 118 112 L 118 120 L 110 120 Z M 110 112 " clip-rule="nonzero"/></clipPath><clipPath id="23c84b3595"><path d="M 78.609375 35.273438 L 157.625 50.484375 L 140.515625 139.375 L 61.496094 124.167969 Z M 78.609375 35.273438 " clip-rule="nonzero"/></clipPath><clipPath id="8607d1bac9"><path d="M 157.488281 50.457031 L 78.472656 35.25 L 61.363281 124.140625 L 140.378906 139.351562 Z M 157.488281 50.457031 " clip-rule="nonzero"/></clipPath><clipPath id="664d2018bd"><path d="M 136 83 L 143 83 L 143 91 L 136 91 Z M 136 83 " clip-rule="nonzero"/></clipPath><clipPath id="1273d7a5fe"><path d="M 78.609375 35.273438 L 157.625 50.484375 L 140.515625 139.375 L 61.496094 124.167969 Z M 78.609375 35.273438 " clip-rule="nonzero"/></clipPath><clipPath id="5353f96e6b"><path d="M 157.488281 50.457031 L 78.472656 35.25 L 61.363281 124.140625 L 140.378906 139.351562 Z M 157.488281 50.457031 " clip-rule="nonzero"/></clipPath><clipPath id="301d2e97ef"><path d="M 90 59 L 100 59 L 100 65 L 90 65 Z M 90 59 " clip-rule="nonzero"/></clipPath><clipPath id="c0b3765324"><path d="M 78.609375 35.273438 L 157.625 50.484375 L 140.515625 139.375 L 61.496094 124.167969 Z M 78.609375 35.273438 " clip-rule="nonzero"/></clipPath><clipPath id="819d841c6f"><path d="M 157.488281 50.457031 L 78.472656 35.25 L 61.363281 124.140625 L 140.378906 139.351562 Z M 157.488281 50.457031 " clip-rule="nonzero"/></clipPath><clipPath id="080a576360"><path d="M 107 74 L 116 74 L 116 80 L 107 80 Z M 107 74 " clip-rule="nonzero"/></clipPath><clipPath id="cca209cab1"><path d="M 78.609375 35.273438 L 157.625 50.484375 L 140.515625 139.375 L 61.496094 124.167969 Z M 78.609375 35.273438 " clip-rule="nonzero"/></clipPath><clipPath id="c5267d6603"><path d="M 157.488281 50.457031 L 78.472656 35.25 L 61.363281 124.140625 L 140.378906 139.351562 Z M 157.488281 50.457031 " clip-rule="nonzero"/></clipPath><clipPath id="bab087edb3"><path d="M 112 52 L 121 52 L 121 58 L 112 58 Z M 112 52 " clip-rule="nonzero"/></clipPath><clipPath id="12fdae0274"><path d="M 78.609375 35.273438 L 157.625 50.484375 L 140.515625 139.375 L 61.496094 124.167969 Z M 78.609375 35.273438 " clip-rule="nonzero"/></clipPath><clipPath id="e031035c04"><path d="M 157.488281 50.457031 L 78.472656 35.25 L 61.363281 124.140625 L 140.378906 139.351562 Z M 157.488281 50.457031 " clip-rule="nonzero"/></clipPath><clipPath id="5bf1cebdd0"><path d="M 128 66 L 138 66 L 138 72 L 128 72 Z M 128 66 " clip-rule="nonzero"/></clipPath><clipPath id="fc1c089373"><path d="M 78.609375 35.273438 L 157.625 50.484375 L 140.515625 139.375 L 61.496094 124.167969 Z M 78.609375 35.273438 " clip-rule="nonzero"/></clipPath><clipPath id="42095327ed"><path d="M 157.488281 50.457031 L 78.472656 35.25 L 61.363281 124.140625 L 140.378906 139.351562 Z M 157.488281 50.457031 " clip-rule="nonzero"/></clipPath><clipPath id="07c00adb11"><path d="M 109 63 L 119 63 L 119 69 L 109 69 Z M 109 63 " clip-rule="nonzero"/></clipPath><clipPath id="75b199153d"><path d="M 78.609375 35.273438 L 157.625 50.484375 L 140.515625 139.375 L 61.496094 124.167969 Z M 78.609375 35.273438 " clip-rule="nonzero"/></clipPath><clipPath id="b864debb03"><path d="M 157.488281 50.457031 L 78.472656 35.25 L 61.363281 124.140625 L 140.378906 139.351562 Z M 157.488281 50.457031 " clip-rule="nonzero"/></clipPath><clipPath id="b2f778bbea"><path d="M 65 43 L 153 43 L 153 133 L 65 133 Z M 65 43 " clip-rule="nonzero"/></clipPath><clipPath id="80470d4a2f"><path d="M 78.609375 35.273438 L 157.625 50.484375 L 140.515625 139.375 L 61.496094 124.167969 Z M 78.609375 35.273438 " clip-rule="nonzero"/></clipPath><clipPath id="cbd1215075"><path d="M 157.488281 50.457031 L 78.472656 35.25 L 61.363281 124.140625 L 140.378906 139.351562 Z M 157.488281 50.457031 " clip-rule="nonzero"/></clipPath><clipPath id="9f8056894c"><path d="M 29 74.359375 L 80 74.359375 L 80 77 L 29 77 Z M 29 74.359375 " clip-rule="nonzero"/></clipPath><clipPath id="b23256e281"><path d="M 33 110 L 83.144531 110 L 83.144531 112.078125 L 33 112.078125 Z M 33 110 " clip-rule="nonzero"/></clipPath></defs><g clip-path="url(#b84f66dd3d)"><g clip-path="url(#24b758ec93)"><g clip-path="url(#a3591945d7)"><path fill="#d91141" d="M 77.238281 101.164062 C 75.8125 99.925781 74.941406 97.417969 75.300781 95.5625 C 75.65625 93.707031 77.105469 93.207031 78.53125 94.441406 C 79.960938 95.679688 80.832031 98.1875 80.472656 100.042969 C 80.117188 101.902344 78.667969 102.402344 77.238281 101.164062 " fill-opacity="1" fill-rule="nonzero"/></g></g></g><g clip-path="url(#4d4ac745a3)"><g clip-path="url(#ebf90ad2cc)"><g clip-path="url(#126951ae02)"><path fill="#d91141" d="M 99.886719 87.921875 C 101.316406 89.160156 102.183594 91.667969 101.828125 93.523438 C 101.46875 95.378906 100.019531 95.878906 98.59375 94.644531 C 97.164062 93.40625 96.296875 90.898438 96.652344 89.042969 C 97.007812 87.1875 98.457031 86.683594 99.886719 87.921875 " fill-opacity="1" fill-rule="nonzero"/></g></g></g><g clip-path="url(#e984c2d0f4)"><g clip-path="url(#e772028d0e)"><g clip-path="url(#1c4da6f44d)"><path fill="#d91141" d="M 89.210938 91.183594 C 90.636719 92.421875 91.507812 94.929688 91.148438 96.785156 C 90.792969 98.640625 89.34375 99.140625 87.914062 97.902344 C 86.488281 96.667969 85.617188 94.160156 85.976562 92.304688 C 86.332031 90.445312 87.78125 89.945312 89.210938 91.183594 " fill-opacity="1" fill-rule="nonzero"/></g></g></g><g clip-path="url(#54f31a20b2)"><g clip-path="url(#23c84b3595)"><g clip-path="url(#8607d1bac9)"><path fill="#d91141" d="M 113.3125 119.710938 C 111.527344 120.328125 110.367188 119.328125 110.726562 117.46875 C 111.082031 115.613281 112.820312 113.609375 114.605469 112.988281 C 116.390625 112.371094 117.550781 113.375 117.191406 115.230469 C 116.835938 117.085938 115.097656 119.09375 113.3125 119.710938 " fill-opacity="1" fill-rule="nonzero"/></g></g></g><g clip-path="url(#664d2018bd)"><g clip-path="url(#1273d7a5fe)"><g clip-path="url(#5353f96e6b)"><path fill="#d91141" d="M 138.972656 90.8125 C 137.1875 91.429688 136.027344 90.429688 136.386719 88.570312 C 136.742188 86.714844 138.480469 84.707031 140.265625 84.089844 C 142.050781 83.472656 143.210938 84.476562 142.851562 86.332031 C 142.496094 88.1875 140.757812 90.195312 138.972656 90.8125 " fill-opacity="1" fill-rule="nonzero"/></g></g></g><g clip-path="url(#301d2e97ef)"><g clip-path="url(#c0b3765324)"><g clip-path="url(#819d841c6f)"><path fill="#d91141" d="M 92.292969 60.242188 C 94.078125 59.625 96.683594 60.125 98.113281 61.363281 C 99.539062 62.601562 99.25 64.105469 97.464844 64.722656 C 95.679688 65.34375 93.074219 64.839844 91.644531 63.601562 C 90.214844 62.367188 90.503906 60.863281 92.292969 60.242188 " fill-opacity="1" fill-rule="nonzero"/></g></g></g><g clip-path="url(#080a576360)"><g clip-path="url(#cca209cab1)"><g clip-path="url(#c5267d6603)"><path fill="#d91141" d="M 108.796875 74.535156 C 110.582031 73.917969 113.1875 74.417969 114.617188 75.65625 C 116.046875 76.894531 115.753906 78.398438 113.96875 79.015625 C 112.183594 79.636719 109.578125 79.136719 108.148438 77.898438 C 106.71875 76.660156 107.007812 75.15625 108.796875 74.535156 " fill-opacity="1" fill-rule="nonzero"/></g></g></g><g clip-path="url(#bab087edb3)"><g clip-path="url(#12fdae0274)"><g clip-path="url(#e031035c04)"><path fill="#d91141" d="M 119 57.265625 C 117.210938 57.882812 114.605469 57.382812 113.175781 56.144531 C 111.75 54.90625 112.039062 53.402344 113.824219 52.785156 C 115.609375 52.164062 118.21875 52.667969 119.644531 53.902344 C 121.074219 55.140625 120.785156 56.644531 119 57.265625 " fill-opacity="1" fill-rule="nonzero"/></g></g></g><g clip-path="url(#5bf1cebdd0)"><g clip-path="url(#fc1c089373)"><g clip-path="url(#42095327ed)"><path fill="#d91141" d="M 130.328125 67.078125 C 132.113281 66.457031 134.71875 66.960938 136.148438 68.199219 C 137.578125 69.433594 137.289062 70.941406 135.503906 71.558594 C 133.714844 72.175781 131.109375 71.675781 129.683594 70.4375 C 128.253906 69.199219 128.542969 67.695312 130.328125 67.078125 " fill-opacity="1" fill-rule="nonzero"/></g></g></g><g clip-path="url(#07c00adb11)"><g clip-path="url(#75b199153d)"><g clip-path="url(#b864debb03)"><path fill="#d91141" d="M 116.484375 68.140625 C 114.699219 68.761719 112.089844 68.257812 110.664062 67.019531 C 109.234375 65.785156 109.523438 64.277344 111.308594 63.660156 C 113.097656 63.042969 115.703125 63.542969 117.132812 64.78125 C 118.558594 66.019531 118.269531 67.523438 116.484375 68.140625 " fill-opacity="1" fill-rule="nonzero"/></g></g></g><g clip-path="url(#b2f778bbea)"><g clip-path="url(#80470d4a2f)"><g clip-path="url(#cbd1215075)"><path fill="#d91141" d="M 76.683594 60.578125 L 77.289062 61.480469 L 76.707031 60.46875 Z M 68.980469 100.609375 L 100.582031 127.859375 L 108.242188 88.066406 L 85.949219 68.9375 L 76.585938 61.097656 Z M 110.0625 85.828125 L 148.417969 72.542969 L 117.734375 45.972656 L 79.378906 59.253906 Z M 111.476562 88.488281 L 112.039062 88.292969 L 111.480469 88.484375 Z M 109.699219 96.78125 L 103.605469 128.441406 L 142.082031 115.179688 L 149.757812 75.316406 L 111.273438 88.585938 Z M 75.921875 57.160156 L 76.472656 56.996094 L 76.507812 57.058594 L 76.660156 57.011719 L 116.222656 43.304688 C 117.5625 42.839844 119.050781 43.128906 120.121094 44.054688 L 121.6875 45.410156 L 133.664062 55.78125 L 151.902344 71.613281 C 152.652344 72.269531 153.09375 73.296875 152.90625 74.277344 L 144.824219 116.265625 C 144.683594 116.988281 144.078125 117.5625 143.386719 117.804688 L 110.128906 129.371094 L 102.773438 131.921875 C 101.867188 132.238281 100.851562 132.054688 100.117188 131.4375 L 95.621094 127.679688 L 66.722656 103.046875 C 66.160156 102.566406 65.804688 101.800781 65.945312 101.070312 L 73.992188 59.261719 C 74.179688 58.277344 74.972656 57.484375 75.921875 57.160156 " fill-opacity="1" fill-rule="nonzero"/></g></g></g><path fill="#d43c59" d="M 75.945312 102.320312 L 19.480469 101.488281 L 75.945312 100.65625 C 76.40625 100.648438 76.785156 101.015625 76.789062 101.476562 C 76.796875 101.933594 76.429688 102.3125 75.96875 102.320312 C 75.964844 102.320312 75.953125 102.320312 75.945312 102.320312 Z M 75.945312 102.320312 " fill-opacity="1" fill-rule="nonzero"/><path fill="#d43c59" d="M 73.871094 97.796875 L 29.230469 97.378906 L 73.871094 96.960938 C 74.101562 96.960938 74.289062 97.144531 74.289062 97.375 C 74.292969 97.605469 74.109375 97.792969 73.878906 97.796875 C 73.875 97.796875 73.871094 97.796875 73.871094 97.796875 Z M 73.871094 97.796875 " fill-opacity="1" fill-rule="nonzero"/><path fill="#d43c59" d="M 60.839844 107.566406 L 16.199219 107.152344 L 60.839844 106.734375 C 61.070312 106.734375 61.257812 106.917969 61.257812 107.148438 C 61.261719 107.378906 61.078125 107.566406 60.847656 107.566406 C 60.84375 107.566406 60.839844 107.566406 60.839844 107.566406 Z M 60.839844 107.566406 " fill-opacity="1" fill-rule="nonzero"/><path fill="#d43c59" d="M 71.125 95.660156 L 23.59375 94.945312 L 71.125 94.230469 C 71.519531 94.226562 71.84375 94.542969 71.847656 94.933594 C 71.855469 95.328125 71.539062 95.652344 71.144531 95.660156 C 71.140625 95.660156 71.128906 95.660156 71.125 95.660156 Z M 71.125 95.660156 " fill-opacity="1" fill-rule="nonzero"/><path fill="#d43c59" d="M 77.109375 92.308594 L 9.78125 91.59375 L 77.109375 90.878906 C 77.5 90.875 77.824219 91.191406 77.828125 91.585938 C 77.832031 91.980469 77.515625 92.304688 77.121094 92.308594 C 77.117188 92.308594 77.113281 92.308594 77.109375 92.308594 Z M 77.109375 92.308594 " fill-opacity="1" fill-rule="nonzero"/><path fill="#d43c59" d="M 82.121094 105.394531 L 14.792969 104.679688 L 82.121094 103.964844 C 82.515625 103.960938 82.835938 104.277344 82.839844 104.671875 C 82.847656 105.066406 82.53125 105.390625 82.136719 105.394531 C 82.132812 105.394531 82.125 105.394531 82.121094 105.394531 Z M 82.121094 105.394531 " fill-opacity="1" fill-rule="nonzero"/><path fill="#d43c59" d="M 72.660156 89.140625 L 16.195312 88.722656 L 72.660156 88.308594 C 72.890625 88.304688 73.078125 88.492188 73.082031 88.722656 C 73.082031 88.949219 72.898438 89.140625 72.667969 89.140625 C 72.667969 89.140625 72.664062 89.140625 72.660156 89.140625 Z M 72.660156 89.140625 " fill-opacity="1" fill-rule="nonzero"/><path fill="#d43c59" d="M 74.179688 86.246094 L 24.632812 85.535156 L 74.179688 84.820312 C 74.574219 84.816406 74.898438 85.128906 74.902344 85.523438 C 74.910156 85.917969 74.59375 86.242188 74.199219 86.25 C 74.195312 86.246094 74.183594 86.246094 74.179688 86.246094 Z M 74.179688 86.246094 " fill-opacity="1" fill-rule="nonzero"/><path fill="#d43c59" d="M 71.214844 82.117188 L 21.671875 81.699219 L 71.214844 81.28125 C 71.445312 81.28125 71.632812 81.464844 71.636719 81.695312 C 71.636719 81.925781 71.453125 82.113281 71.222656 82.117188 C 71.222656 82.117188 71.214844 82.117188 71.214844 82.117188 Z M 71.214844 82.117188 " fill-opacity="1" fill-rule="nonzero"/><path fill="#d43c59" d="M 75.464844 80.207031 L 43.515625 79.96875 L 75.464844 79.734375 C 75.597656 79.730469 75.707031 79.835938 75.707031 79.96875 C 75.707031 80.101562 75.601562 80.207031 75.46875 80.210938 C 75.46875 80.207031 75.46875 80.207031 75.464844 80.207031 Z M 75.464844 80.207031 " fill-opacity="1" fill-rule="nonzero"/><path fill="#d43c59" d="M 45.945312 83.34375 L -3.601562 83.105469 L 45.945312 82.867188 C 46.074219 82.867188 46.183594 82.972656 46.183594 83.105469 C 46.183594 83.238281 46.078125 83.34375 45.945312 83.34375 Z M 45.945312 83.34375 " fill-opacity="1" fill-rule="nonzero"/><path fill="#d43c59" d="M 29.234375 100.132812 L 12.472656 99.894531 L 29.234375 99.65625 C 29.367188 99.652344 29.472656 99.757812 29.476562 99.890625 C 29.476562 100.023438 29.371094 100.128906 29.242188 100.132812 C 29.238281 100.132812 29.234375 100.132812 29.234375 100.132812 Z M 29.234375 100.132812 " fill-opacity="1" fill-rule="nonzero"/><path fill="#d43c59" d="M 67.871094 109.203125 L 51.109375 108.96875 L 67.871094 108.730469 C 68.003906 108.726562 68.109375 108.832031 68.113281 108.964844 C 68.113281 109.097656 68.007812 109.203125 67.878906 109.207031 C 67.875 109.203125 67.875 109.203125 67.871094 109.203125 Z M 67.871094 109.203125 " fill-opacity="1" fill-rule="nonzero"/><path fill="#d43c59" d="M 54.824219 87.585938 L 38.0625 87.351562 L 54.824219 87.113281 C 54.953125 87.109375 55.0625 87.214844 55.0625 87.347656 C 55.066406 87.480469 54.960938 87.585938 54.828125 87.589844 C 54.828125 87.585938 54.824219 87.585938 54.824219 87.585938 Z M 54.824219 87.585938 " fill-opacity="1" fill-rule="nonzero"/><path fill="#d43c59" d="M 42.890625 93.507812 L 26.128906 93.269531 L 42.890625 93.03125 C 43.019531 93.03125 43.128906 93.136719 43.132812 93.265625 C 43.132812 93.398438 43.027344 93.507812 42.894531 93.507812 C 42.894531 93.507812 42.890625 93.507812 42.890625 93.507812 Z M 42.890625 93.507812 " fill-opacity="1" fill-rule="nonzero"/><path fill="#d43c59" d="M 64.246094 79.074219 L 14.699219 78.242188 L 64.246094 77.40625 C 64.707031 77.398438 65.085938 77.765625 65.09375 78.226562 C 65.101562 78.6875 64.734375 79.066406 64.273438 79.074219 C 64.265625 79.074219 64.253906 79.074219 64.246094 79.074219 Z M 64.246094 79.074219 " fill-opacity="1" fill-rule="nonzero"/><g clip-path="url(#9f8056894c)"><path fill="#d43c59" d="M 79.066406 76.03125 L 29.519531 75.199219 L 79.066406 74.367188 C 79.523438 74.359375 79.90625 74.726562 79.910156 75.183594 C 79.917969 75.644531 79.554688 76.023438 79.09375 76.03125 C 79.085938 76.03125 79.074219 76.03125 79.066406 76.03125 Z M 79.066406 76.03125 " fill-opacity="1" fill-rule="nonzero"/></g><g clip-path="url(#b23256e281)"><path fill="#d43c59" d="M 82.578125 112.628906 L 33.03125 111.792969 L 82.578125 110.960938 C 83.035156 110.953125 83.417969 111.320312 83.421875 111.78125 C 83.429688 112.242188 83.066406 112.621094 82.605469 112.628906 C 82.597656 112.628906 82.585938 112.628906 82.578125 112.628906 Z M 82.578125 112.628906 " fill-opacity="1" fill-rule="nonzero"/></g></svg>